<svg xmlns="http://www.w3.org/2000/svg" width="32.563" height="32.563" viewBox="0 0 32.563 32.563"><defs><style>.a{fill:none;}.b,.c{stroke:none;}.c{fill:rgba(48,28,43,0.25);}</style></defs><g class="a" transform="translate(2 -0.25)"><path class="b" d="M18.636,20.1a2.537,2.537,0,0,1-2.8,2.641H10.679V17.53h5.157C18.549,17.53,18.636,19.564,18.636,20.1Zm-3.2-4.662a2.291,2.291,0,0,0,2.451-2.315c0-.989-.224-2.287-2.451-2.287h-4.76v4.6ZM28.563,7.011V26.052A4.775,4.775,0,0,1,23.8,30.813H4.761A4.775,4.775,0,0,1,0,26.052V7.011A4.775,4.775,0,0,1,4.761,2.25H23.8a4.775,4.775,0,0,1,4.761,4.761Zm-7.01,13.465a3.993,3.993,0,0,0-3.127-4.294v-.047a3.653,3.653,0,0,0,2.381-3.547c0-.446.128-4.13-4.947-4.13h-8.1V25.119c8.175,0,8.918.107,10.431-.364a4.286,4.286,0,0,0,3.361-4.279Z"/><path class="c" d="M 23.80219459533691 30.81284141540527 C 26.42825508117676 30.80514144897461 28.55518531799316 28.6782112121582 28.56289482116699 26.05216217041016 L 28.56289482116699 7.01069164276123 C 28.55518531799316 4.384631633758545 26.42825508117676 2.257701635360718 23.80219459533691 2.250001668930054 L 4.76069450378418 2.250001668930054 C 2.134634494781494 2.257701635360718 0.007704549469053745 4.384631633758545 4.549560344457859e-06 7.010681629180908 L 4.549560344457859e-06 26.05216217041016 C 0.007704549469053745 28.6782112121582 2.134634494781494 30.80514144897461 4.76069450378418 30.81284141540527 L 23.80219459533691 30.81284141540527 M 7.761714458465576 8.457322120666504 L 15.85878467559814 8.457322120666504 C 20.93379402160645 8.457322120666504 20.8062744140625 12.14116191864014 20.8062744140625 12.58745193481445 C 20.8062744140625 14.33374118804932 19.88627433776855 15.51132202148438 18.42561531066895 16.13485145568848 L 18.42561531066895 16.1814022064209 C 21.12888526916504 16.75903129577637 21.55286407470703 19.10016250610352 21.55286407470703 20.47539138793945 L 21.5528736114502 20.47538185119629 C 21.5528736114502 23.60837173461914 19.09824371337891 24.4729118347168 18.19226455688477 24.75471115112305 C 17.15211868286133 25.07863426208496 16.4770393371582 25.12922477722168 13.49959754943848 25.12922477722168 C 12.14621543884277 25.12922477722168 10.31655502319336 25.11876106262207 7.761714458465576 25.11876106262207 L 7.761714458465576 8.457322120666504 M 15.88415336608887 22.73886299133301 C 16.32244873046875 22.73886299133301 18.63601493835449 22.68173789978027 18.63601493835449 20.09731101989746 C 18.63601493835449 19.56431198120117 18.54929542541504 17.53048133850098 15.83582496643066 17.53048133850098 L 10.67856502532959 17.53048133850098 L 10.67856502532959 22.73874092102051 L 15.83582496643066 22.73874092102051 C 15.84765720367432 22.73874092102051 15.86389064788818 22.73886299133301 15.88415336608887 22.73886299133301 M 15.46288681030273 15.43497657775879 C 15.72001552581787 15.43498134613037 17.88942527770996 15.37763023376465 17.88942527770996 13.11982154846191 C 17.88942527770996 12.13032150268555 17.66563415527344 10.83288192749023 15.43862438201904 10.83288192749023 L 10.67856502532959 10.83288192749023 L 10.67856502532959 15.43481159210205 L 15.43862438201904 15.43481159210205 C 15.44079685211182 15.43481159210205 15.4491138458252 15.43497657775879 15.46288681030273 15.43497657775879 M 23.80512428283691 32.81284332275391 L 23.80219459533691 32.81284332275391 L 4.76069450378418 32.81284332275391 L 4.757764339447021 32.81284332275391 L 4.754834651947021 32.81283187866211 C 2.952744483947754 32.80755233764648 1.258524537086487 32.10287094116211 -0.01574544981122017 30.8286018371582 C -1.290015459060669 29.55433082580566 -1.994705438613892 27.8601016998291 -1.999985456466675 26.05802154541016 L -1.999995470046997 26.05509185791016 L -1.999995470046997 26.05216217041016 L -1.999995470046997 7.010681629180908 L -1.999995470046997 7.00775146484375 L -1.999985456466675 7.00482177734375 C -1.994705438613892 5.202741622924805 -1.290015459060669 3.508511543273926 -0.01574544981122017 2.234241724014282 C 1.258524537086487 0.9599716663360596 2.952744483947754 0.2552916705608368 4.754834651947021 0.2500116527080536 L 4.757764339447021 0.2500016689300537 L 4.76069450378418 0.2500016689300537 L 23.80219459533691 0.2500016689300537 L 23.80512428283691 0.2500016689300537 L 23.80805397033691 0.2500116527080536 C 25.61014366149902 0.2552916705608368 27.30436515808105 0.9599716663360596 28.57863426208496 2.234251737594604 C 29.8529052734375 3.508511543273926 30.55759429931641 5.202741622924805 30.56288528442383 7.00482177734375 L 30.56289482116699 7.00775146484375 L 30.56289482116699 7.01069164276123 L 30.56289482116699 26.05216217041016 L 30.56289482116699 26.05510139465332 L 30.56288528442383 26.05803108215332 C 30.55759429931641 27.86011123657227 29.8529052734375 29.55433082580566 28.57863426208496 30.8286018371582 C 27.30436515808105 32.10287094116211 25.61014366149902 32.80755233764648 23.80805397033691 32.81283187866211 L 23.80512428283691 32.81284332275391 Z"/></g></svg>