<svg xmlns="http://www.w3.org/2000/svg" width="32.794" height="37.271" viewBox="0 0 32.794 37.271"><defs><style>.a{fill:none;}.b,.c{stroke:none;}.c{fill:rgba(48,28,43,0.25);}</style></defs><g class="a" transform="translate(2.184 -0.25)"><path class="b" d="M0,2.25l2.583,29.3,11.629,3.864,11.629-3.864,2.584-29.3ZM23.177,8.172l-.355,3.5-8.535,3.649-.022.007h8.254l-.948,10.852L14.3,28.307,6.988,26.146l-.474-5.471h3.62l.237,2.835,3.894.985,4.049-1.14.274-4.56-12.31-.037V18.75l-.015.007L6,15.33l8.3-3.457.481-.2h-9.1l-.429-3.5Z"/><path class="c" d="M -1.9073486328125e-06 2.25 L 2.583498001098633 31.54940223693848 L 14.21294784545898 35.41354370117188 L 25.84238815307617 31.54940223693848 L 28.4258975982666 2.25 L -1.9073486328125e-06 2.25 M 5.248428344726563 8.172061920166016 L 23.17746734619141 8.172061920166016 L 22.8221378326416 11.67348098754883 L 14.28696823120117 15.32295227050781 L 14.26476764678955 15.33035278320313 L 22.51863861083984 15.33035278320313 L 21.57110786437988 26.18253326416016 L 14.30177783966064 28.30707168579102 L 6.988037109375 26.14552307128906 L 6.514266967773438 20.67501258850098 L 10.13412857055664 20.67501258850098 L 10.37100791931152 23.51020050048828 L 14.26476764678955 24.49474143981934 L 18.31397819519043 23.3547420501709 L 18.58786773681641 18.79476165771484 L 6.277387619018555 18.75774192810059 L 6.277387619018555 18.75034141540527 L 6.262577056884766 18.75774192810059 L 5.996088027954102 15.33035278320313 L 14.29437828063965 11.87335205078125 L 14.77553749084473 11.67348098754883 L 5.677778244018555 11.67348098754883 L 5.248428344726563 8.172061920166016 M -2.184112548828125 0.25 L -1.9073486328125e-06 0.25 L 28.4258975982666 0.25 L 30.61000823974609 0.25 L 30.41816711425781 2.425670623779297 L 27.83465766906738 31.72507095336914 L 27.71930694580078 33.03327178955078 L 26.4730281829834 33.44737243652344 L 14.84358787536621 37.3115119934082 L 14.21294784545898 37.52105331420898 L 13.58230781555176 37.3115119934082 L 1.952857971191406 33.44737243652344 L 0.7065773010253906 33.03327178955078 L 0.5912284851074219 31.72507095336914 L -1.992271423339844 2.425670623779297 L -2.184112548828125 0.25 Z M 20.9642333984375 10.17206192016602 L 14.87497138977051 10.17206192016602 L 15.37560176849365 12.68231773376465 L 20.95143127441406 10.29820251464844 L 20.9642333984375 10.17206192016602 Z M 14.17569828033447 16.78148460388184 L 13.76649475097656 14.2598705291748 L 8.277387619018555 16.54658699035645 L 8.277387619018555 16.76374816894531 L 14.17569828033447 16.78148460388184 Z"/></g></svg>