<svg xmlns="http://www.w3.org/2000/svg" width="26.577" height="33.167" viewBox="0 0 26.577 33.167"><defs><style>.a{fill:none;stroke-linecap:round;}.b,.c{stroke:none;}.c{fill:rgba(48,28,43,0.25);}</style></defs><g class="a" transform="translate(-1.703 2)"><path class="b" d="M5.671,19.048,8.546.56A.659.659,0,0,1,9.779.351l3.091,5.8Zm20.412,4.486L23.346,6.52a.66.66,0,0,0-1.116-.359L4.973,23.534l9.549,5.382a1.969,1.969,0,0,0,1.929,0l9.633-5.382ZM18.323,8.687,16.111,4.456a.659.659,0,0,0-1.167,0l-9.711,17.4Z"/><path class="c" d="M 15.48573970794678 29.16764640808105 C 15.81820106506348 29.16764640808105 16.15066146850586 29.08352851867676 16.45009994506836 28.9152946472168 L 26.08283996582031 23.53379440307617 L 23.34590148925781 6.520344257354736 C 23.30489158630371 6.277254104614258 23.13179016113281 6.07729434967041 22.89708137512207 6.001863956451416 C 22.8308219909668 5.980574131011963 22.76274108886719 5.970206260681152 22.69525909423828 5.970206260681152 C 22.5236873626709 5.970206260681152 22.35580253601074 6.037164688110352 22.2302303314209 6.161824226379395 L 4.972500801086426 23.53378486633301 L 14.52137088775635 28.9152946472168 C 14.82081604003906 29.08352851867676 15.15327835083008 29.16764640808105 15.48573970794678 29.16764640808105 M 26.08283996582031 23.53379440307617 L 26.08283996582031 23.53378486633301 L 26.08283996582031 23.53379440307617 M 5.233800888061523 21.85663414001465 L 18.32293128967285 8.687284469604492 L 16.11103057861328 4.455504417419434 C 15.99728107452393 4.238604068756104 15.77259063720703 4.102724075317383 15.52767086029053 4.102724075317383 C 15.28275108337402 4.102724075317383 15.05806064605713 4.238604068756104 14.94431114196777 4.455504417419434 L 5.233800888061523 21.85663414001465 M 5.671320915222168 19.04800415039063 L 12.86974048614502 6.149674415588379 L 9.77915096282959 0.351324200630188 C 9.663722991943359 0.1330518126487732 9.438034057617188 0.000490755308419466 9.197038650512695 0.000490755308419466 C 9.160539627075195 0.000490755308419466 9.123650550842285 0.003536481643095613 9.086780548095703 0.009784192778170109 C 8.806461334228516 0.05728419125080109 8.588260650634766 0.279274195432663 8.545580863952637 0.5603641867637634 L 5.671320915222168 19.04800415039063 M 15.48574066162109 31.16764450073242 C 14.80630111694336 31.16764450073242 14.13408088684082 30.99173355102539 13.54174041748047 30.65894508361816 L 3.990550756454468 25.2761344909668 L 1.703130841255188 23.98699378967285 L 3.553630828857422 22.12424468994141 L 4.231046676635742 21.44234466552734 L 3.487330913543701 20.88203430175781 L 4.523125648498535 19.02590179443359 L 3.695060968399048 18.74075508117676 L 6.568882465362549 0.2559327483177185 C 6.743040561676025 -0.8791335821151733 7.620114803314209 -1.770200371742249 8.752640724182129 -1.962105751037598 C 8.899001121520996 -1.986915826797485 9.048561096191406 -1.999505758285522 9.197040557861328 -1.999505758285522 C 10.18370532989502 -1.999505758285522 11.08334350585938 -1.458118438720703 11.5456485748291 -0.5864841341972351 L 13.48719215393066 3.056104898452759 C 13.98587799072266 2.457757234573364 14.72763252258301 2.102724075317383 15.52767086029053 2.102724075317383 C 16.51941108703613 2.102724075317383 17.421630859375 2.648334264755249 17.88224029541016 3.526624202728271 L 19.31184577941895 6.261725425720215 L 20.81136131286621 4.752284049987793 L 20.81625175476074 4.747364044189453 L 20.82117080688477 4.74247407913208 C 21.32281112670898 4.244474411010742 21.98838043212891 3.97020411491394 22.69526100158691 3.97020411491394 C 22.97177124023438 3.97020411491394 23.24551010131836 4.013113975524902 23.50889015197754 4.097743988037109 C 24.45888137817383 4.4030442237854 25.15206146240234 5.203834056854248 25.31803131103516 6.187644004821777 L 25.31930160522461 6.195164203643799 L 25.32051086425781 6.202694416046143 L 28.05745124816895 23.21614456176758 L 28.27966117858887 24.59744453430176 L 27.05828094482422 25.27979469299316 L 17.42554092407227 30.66129493713379 C 16.83742141723633 30.99173355102539 16.16519165039063 31.16764450073242 15.48574066162109 31.16764450073242 Z"/></g></svg>