<svg xmlns="http://www.w3.org/2000/svg" xmlns:xlink="http://www.w3.org/1999/xlink" width="1920" height="1079" viewBox="0 0 1920 1079"><defs><style>.a{clip-path:url(#b);}.b{fill:#feb062;}.c,.d,.e,.f,.g,.j{fill:#3e3636;}.d{font-size:57px;letter-spacing:0.024em;}.d,.f,.g,.i{font-family:MyanmarText, Myanmar Text;}.e{font-size:114px;}.e,.j{font-family:MyanmarText-Bold, Myanmar Text;font-weight:700;}.e,.f{letter-spacing:0.056em;}.f{font-size:34px;}.g,.i{font-size:24px;}.h,.l,.m{fill:none;stroke-linecap:round;stroke-width:4px;}.h{stroke:#feb062;}.i,.k{fill:#f2f2f2;}.j{font-size:43px;letter-spacing:0.029em;}.l,.m{stroke:#3e3636;}.m{stroke-linejoin:round;}</style><clipPath id="b"><rect width="1920" height="1079"/></clipPath></defs><g id="a" class="a"><rect class="k" width="1920" height="1079"/><rect class="b" width="505" height="497" transform="translate(810)"/><rect class="c" width="505" height="497" transform="translate(1315 497)"/><text class="d" transform="translate(127 308)"><tspan x="0" y="0">Hi, I&apos;m</tspan></text><text class="e" transform="translate(101 438)"><tspan x="0" y="0">Arinze Ojili</tspan></text><text class="f" transform="translate(101 604)"><tspan x="0" y="35">Lorem ipsum dolor sit amet, consetetur sadipscing elitr, sed diam </tspan><tspan x="0" y="120">nonumy eirmod tempor invidunt ut labore et dolore magna </tspan><tspan x="0" y="205">aliquyam erat, sed diam voluptua. At vero eos et accusam et justo </tspan></text><g transform="translate(11 23)"><text class="g" transform="translate(1447 54)"><tspan x="0" y="0">About</tspan></text><text class="g" transform="translate(1556 54)"><tspan x="0" y="0">Projects</tspan></text><text class="g" transform="translate(1339 54)"><tspan x="0" y="0">Home</tspan></text><line class="h" x2="71.265" transform="translate(1335.235 62.749)"/></g><g transform="translate(-7 21)"><rect class="b" width="117" height="45" rx="8" transform="translate(1710 28)"/><text class="i" transform="translate(1727 59)"><tspan x="0" y="0">Hire me</tspan></text></g><g transform="translate(101 34)"><rect class="c" width="134" height="57" transform="translate(85 7)"/><text class="j" transform="translate(0 46)"><tspan x="0" y="0">Jilis</tspan><tspan class="k" y="0">Builds</tspan></text></g><g transform="translate(162 -21)"><rect class="l" width="49" height="123" rx="24.5" transform="translate(471 892)"/><circle class="m" cx="16" cy="16" r="16" transform="translate(480 909)"/></g></g></svg>