<svg xmlns="http://www.w3.org/2000/svg" width="32.794" height="37.271" viewBox="0 0 32.794 37.271"><defs><style>.a{fill:none;stroke-linecap:round;opacity:0.77;}.b,.c{stroke:none;}.c{fill:rgba(48,28,43,0.25);}</style></defs><g class="a" transform="translate(2.184 -0.25)"><path class="b" d="M0,2.25l2.583,29.3,11.592,3.864,11.666-3.864,2.583-29.3Zm22.815,9.468H9.209l.3,3.657h13L21.5,26.36l-7.247,2v.022h-.081L6.87,26.36l-.444-5.611H9.956l.259,2.82,3.96,1.073,3.975-1.073.444-4.6H6.24L5.293,8.187H23.14Z"/><path class="c" d="M -1.9073486328125e-06 2.250003814697266 L 2.583498001098633 31.54939270019531 L 14.17593765258789 35.41354370117188 L 25.84239768981934 31.54939270019531 L 28.4258975982666 2.250003814697266 L -1.9073486328125e-06 2.250003814697266 M 5.292837142944336 8.186862945556641 L 23.14044761657715 8.186862945556641 L 22.81473731994629 11.71789360046387 L 9.208806991577148 11.71789360046387 L 9.512308120727539 15.37476348876953 L 22.51123809814453 15.37476348876953 L 21.50448799133301 26.36019515991211 L 14.25735759735107 28.35888290405273 L 14.25735759735107 28.38109397888184 L 14.17593765258789 28.38109397888184 L 6.869586944580078 26.36019515991211 L 6.425437927246094 20.74903297424316 L 9.95646858215332 20.74903297424316 L 10.21555709838867 23.56942367553711 L 14.17593765258789 24.64280319213867 L 18.15111923217773 23.56942367553711 L 18.59527778625488 18.96501350402832 L 6.240367889404297 18.96501350402832 L 5.292837142944336 8.186862945556641 M -2.184112548828125 0.2500038146972656 L -1.9073486328125e-06 0.2500038146972656 L 28.4258975982666 0.2500038146972656 L 30.61000823974609 0.2500038146972656 L 30.41816711425781 2.425674438476563 L 27.83466720581055 31.72506332397461 L 27.71919822692871 33.03461456298828 L 26.47123718261719 33.44796371459961 L 14.80477809906006 37.31211471557617 L 14.17392826080322 37.52106475830078 L 13.54347801208496 37.3109130859375 L 1.951038360595703 33.44676208496094 L 0.7064571380615234 33.03190231323242 L 0.5912284851074219 31.72506332397461 L -1.992271423339844 2.425674438476563 L -2.184112548828125 0.2500038146972656 Z"/></g></svg>