<svg xmlns="http://www.w3.org/2000/svg" width="71.326" height="71.326" viewBox="0 0 71.326 71.326"><defs><style>.a{fill:none;stroke:#ffd6ae;stroke-width:4px;}</style></defs><path class="a" d="M62.517,2.25H4.794A4.83,4.83,0,0,0,0,7.1V64.722a4.83,4.83,0,0,0,4.794,4.854H62.517a4.843,4.843,0,0,0,4.809-4.854V7.1A4.843,4.843,0,0,0,62.517,2.25ZM20.348,59.958H10.369V27.828h9.994v32.13ZM15.359,23.44a5.786,5.786,0,1,1,5.786-5.786,5.788,5.788,0,0,1-5.786,5.786ZM57.753,59.958H47.774V44.329c0-3.727-.075-8.521-5.185-8.521-5.2,0-6,4.058-6,8.25v15.9H26.615V27.828h9.573v4.388h.135a10.51,10.51,0,0,1,9.453-5.185c10.1,0,11.977,6.657,11.977,15.314Z" transform="translate(2 -0.25)"/></svg>