<svg xmlns="http://www.w3.org/2000/svg" width="80.944" height="80.944" viewBox="0 0 80.944 80.944"><defs><style>.a{fill:none;stroke:#ffd6ae;stroke-width:4px;}</style></defs><path class="a" d="M12.311,0H64.633A12.311,12.311,0,0,1,76.944,12.311V64.633A12.311,12.311,0,0,1,64.633,76.944H12.311A12.311,12.311,0,0,1,0,64.633V12.311A12.311,12.311,0,0,1,12.311,0ZM57.756,69.371l-.013,0a8.262,8.262,0,0,0,.67-16.476L42.649,25.058c-2.305-4.142-6.758-3.963-8.364,1.917-1.379,5.566-1.023,10.811-1.423,17.146a.1.1,0,0,1-.074.087.1.1,0,0,1-.106-.042L18.608,16.11a4.77,4.77,0,0,0,1.824-3.741,4.678,4.678,0,1,0-4.678,4.678c.221,0,.4-.045.577-.045C22.256,32.23,28.848,50,31.207,54.1c1.6,3.918,7.082,2.671,7.217-1.558L39,30.316c0-.135.176-.135.224-.045l11.3,26.9a8.249,8.249,0,0,0,7.226,12.2Z" transform="translate(2 2)"/></svg>