<svg xmlns="http://www.w3.org/2000/svg" width="66.942" height="71.491" viewBox="0 0 66.942 71.491"><defs><style>.a{fill:none;stroke:#ffd6ae;stroke-linecap:round;stroke-linejoin:round;stroke-width:4px;}</style></defs><path class="a" d="M25.442,59.254C9.412,64.063,9.412,51.239,3,49.636M47.884,68.872V56.465A10.8,10.8,0,0,0,44.87,48.1c10.067-1.122,20.647-4.937,20.647-22.442a17.439,17.439,0,0,0-4.807-12.02,16.254,16.254,0,0,0-.291-12.089S56.636.424,47.884,6.291a42.9,42.9,0,0,0-22.442,0C16.69.424,12.907,1.546,12.907,1.546a16.254,16.254,0,0,0-.289,12.087A17.441,17.441,0,0,0,7.809,25.751c0,17.377,10.58,21.192,20.647,22.442a10.8,10.8,0,0,0-3.014,8.271V68.872" transform="translate(-0.575 0.62)"/></svg>