<svg xmlns="http://www.w3.org/2000/svg" width="32.426" height="32.426" viewBox="0 0 32.426 32.426"><defs><style>.a{fill:none;}.b,.c{stroke:none;}.c{fill:rgba(48,28,43,0.25);}</style></defs><g class="a" transform="translate(2 2)"><path class="b" d="M0,0H28.426V28.426H0ZM26.1,21.646c-.207-1.3-1.052-2.387-3.557-3.4-.872-.409-1.841-.693-2.128-1.35a1.4,1.4,0,0,1-.054-.835,1.358,1.358,0,0,1,1.794-.782,1.927,1.927,0,0,1,1.156,1.066c1.225-.8,1.225-.8,2.079-1.332a4.888,4.888,0,0,0-.694-.924,3.978,3.978,0,0,0-3.357-1.225l-.835.105a3.818,3.818,0,0,0-2.025,1.19,3.716,3.716,0,0,0,.674,5.3c1.617,1.208,3.981,1.473,4.283,2.612.284,1.386-1.03,1.83-2.329,1.67a3.119,3.119,0,0,1-2.079-1.582L16.858,23.4a4.79,4.79,0,0,0,.959,1.314c2.061,2.08,7.213,1.973,8.138-1.189a4.009,4.009,0,0,0,.088-1.954l.054.079Zm-10.64-8.581H12.8c0,2.3-.011,4.577-.011,6.876a11.214,11.214,0,0,1-.163,3.211c-.391.816-1.4.712-1.855.569a2.285,2.285,0,0,1-.983-1.013,1.016,1.016,0,0,0-.15-.232L7.471,23.808a4.189,4.189,0,0,0,1.568,1.8,5.213,5.213,0,0,0,3.8.48,3.327,3.327,0,0,0,2.145-1.671c.6-1.1.476-2.452.47-3.963.014-2.433,0-4.867,0-7.318l0-.066Z"/><path class="c" d="M -1.9073486328125e-06 -1.9073486328125e-06 L -1.9073486328125e-06 28.4258975982666 L 28.4258975982666 28.4258975982666 L 28.4258975982666 -1.9073486328125e-06 L -1.9073486328125e-06 -1.9073486328125e-06 M 23.30804824829102 16.3425178527832 C 23.04036712646484 15.77399826049805 22.61397743225098 15.41867828369141 22.15206718444824 15.2765474319458 C 21.9851188659668 15.22646427154541 21.80746650695801 15.20083522796631 21.63092422485352 15.20083522796631 C 21.05598068237305 15.20083522796631 20.49360084533691 15.47287559509277 20.3576774597168 16.05825805664063 C 20.28779792785645 16.28921890258789 20.30437850952148 16.50241851806641 20.41215896606445 16.89327812194824 C 20.6999683380127 17.55061721801758 21.6688175201416 17.83487701416016 22.54054832458496 18.24349784851074 C 25.04557800292969 19.25972747802734 25.89006805419922 20.34938812255859 26.09733772277832 21.64631843566895 L 26.0428581237793 21.56695747375488 C 26.23946762084961 22.68622779846191 25.98955726623535 23.41463851928711 25.95520782470703 23.52123832702637 C 25.43488311767578 25.30007553100586 23.57765579223633 26.11187553405762 21.68485832214355 26.11187553405762 C 20.21268272399902 26.11187553405762 18.71875381469727 25.62031364440918 17.81711769104004 24.71038818359375 C 17.39072799682617 24.21293830871582 17.10646820068359 23.96538734436035 16.85773849487305 23.39687728881836 L 19.02521896362305 22.15205764770508 C 19.61149787902832 23.04036712646484 20.1432991027832 23.52123832702637 21.10385894775391 23.73443794250488 C 21.26976776123047 23.75487327575684 21.43587112426758 23.76543807983398 21.59894943237305 23.76543807983398 C 22.71183776855469 23.76543807983398 23.68033790588379 23.27306747436523 23.43240737915039 22.06441879272461 C 23.1303882598877 20.92619705200195 20.76629829406738 20.660888671875 19.14957809448242 19.45278739929199 C 17.51508712768555 18.35127830505371 17.12541770935059 15.68635749816895 18.47564697265625 14.15727806091309 C 18.93756866455078 13.58875751495361 19.7003288269043 13.16236782073975 20.50099754333496 12.96694755554199 L 21.33600807189941 12.86152744293213 C 21.40024566650391 12.86006927490234 21.46347808837891 12.85934162139893 21.52577209472656 12.85934162139893 C 23.03128051757813 12.85934162139893 23.97609710693359 13.28437614440918 24.692626953125 14.08621788024902 C 24.90818786621094 14.29822826385498 25.06689834594727 14.51260757446289 25.38668823242188 15.01005744934082 C 24.53272819519043 15.54185771942139 24.53272819519043 15.54185771942139 23.30804824829102 16.3425178527832 M 11.49485969543457 26.23652839660645 C 10.57522583007813 26.23652839660645 9.726991653442383 26.01475143432617 9.0394287109375 25.60462760925293 C 8.359577178955078 25.19599723815918 7.832517623901367 24.55404853820801 7.471267700195313 23.80786895751953 L 9.632827758789063 22.47540855407715 C 9.652957916259766 22.47540855407715 9.708627700805664 22.58318710327148 9.783246994018555 22.70754814147949 C 10.05920791625977 23.16828727722168 10.29727745056152 23.48807716369629 10.76630783081055 23.72021865844727 C 10.93152809143066 23.77201271057129 11.16846466064453 23.81869506835938 11.42222595214844 23.81869506835938 C 11.87064933776855 23.81869506835938 12.37149047851563 23.6728515625 12.62109756469727 23.15170669555664 C 12.85916805267334 22.73952865600586 12.78454780578613 21.39995765686035 12.78454780578613 19.94076919555664 C 12.78454780578613 17.64181900024414 12.79520797729492 15.36063766479492 12.79520797729492 13.06524753570557 L 15.45776748657227 13.06524753570557 L 15.45302772521973 13.13156795501709 C 15.45302772521973 15.58330821990967 15.46723747253418 18.01727676391602 15.45302772521973 20.45005798339844 C 15.45894813537598 21.96136856079102 15.58686828613281 23.31159782409668 14.98281764984131 24.4130973815918 C 14.56471824645996 25.26587867736816 13.76523780822754 25.81662750244141 12.83784770965576 26.08430862426758 C 12.38040733337402 26.18697547912598 11.92971038818359 26.23652839660645 11.49485969543457 26.23652839660645 M -2.000001907348633 -2.000001907348633 L -1.9073486328125e-06 -2.000001907348633 L 28.4258975982666 -2.000001907348633 L 30.4258975982666 -2.000001907348633 L 30.4258975982666 -1.9073486328125e-06 L 30.4258975982666 28.4258975982666 L 30.4258975982666 30.4258975982666 L 28.4258975982666 30.4258975982666 L -1.9073486328125e-06 30.4258975982666 L -2.000001907348633 30.4258975982666 L -2.000001907348633 28.4258975982666 L -2.000001907348633 -1.9073486328125e-06 L -2.000001907348633 -2.000001907348633 Z"/></g></svg>