<svg xmlns="http://www.w3.org/2000/svg" width="17.547" height="34.985" viewBox="0 0 17.547 34.985"><defs><style>.a{fill:none;}.b,.c{stroke:none;}.c{fill:rgba(48,28,43,0.25);}</style></defs><g class="a" transform="translate(-7.927 1.922)"><path class="b" d="M23.223,11.982c-1.59-7-5.34-9.3-5.743-10.179A11.311,11.311,0,0,1,16.557,0c0,.024-.005.039-.006.062V.078h0c0,.019,0,.031-.005.049V.146h0c0,.013,0,.023,0,.033V.211h0a.238.238,0,0,1,0,.031V.269h0a.09.09,0,0,1,0,.026V.321h0c0,.013,0,.028,0,.04v0l-.011.063v.01h0a.066.066,0,0,0,0,.015V.473h0V.5h-.006V.524h-.006V.55h-.005V.574h-.005V.6H16.47V.613h-.005V.636H16.46V.653h-.006V.67h0V.689h-.005a.008.008,0,0,0,0,.005V.706h0a.016.016,0,0,0,0,.008V.721h0a.055.055,0,0,0,0,.013L16.421.76v0a.038.038,0,0,0-.006.009v.01H16.41v.01H16.4V.8h0V.814h-.008V.832h-.005V.837h-.005v.01h-.005V.861h-.005v.01h-.008V.885H16.36V.9h-.006v.01h0V.918h-.006v.01h-.005V.935h-.005v.01h-.008V.957h-.005V.964h-.006v.01h-.005V.988H16.3V.993h0V1h-.008v.005h-.005v.013h-.005v.005h-.005v.01H16.27v.008h0l0,.005v.005h0s0,0,0,.005h0a.02.02,0,0,1-.005.009v0h0a.236.236,0,0,0-.015.023h0a.057.057,0,0,0-.011.013v0h0s0,0,0,0v0h0l0,0h0s0,0,0,.005v.005h0l0,0v0h0s0,0,0,0v0h-.005s0,0,0,0v.008h0v.005h-.005v.008h-.005v.01H16.17v-.01h-.006v.005h-.005v.008h-.006v.01h-.006V1.2h-.005v.008h-.005v.005h-.005v.01h-.008v.005h-.005v.008h-.006v.005h-.005v.006H16.1v.013h0v.005H16.09v.006h-.005v0H16.08v.005h-.006v.013h-.005v.005h-.006V1.3h-.005v.008h-.006v.005h-.006v.005H16.04v.005h-.005v.013H16.03v.006h-.008v.005h-.005v.005h-.006v.008h-.005v.005H16v.009h-.005v.005h-.008v.008h0V1.39h-.005v.005h-.006V1.4h-.005v.008h-.006v.005h0a0,0,0,0,0,0,0v0h0l-.005.005-.005,0v.008h-.005V1.44h-.005v.005h-.005V1.45h0l0,0v0h0l0,0v0h0a.126.126,0,0,1-.018.02l-.015.013a.46.46,0,0,0-.049.04.265.265,0,0,0-.028.021h0l-.062.049h0l-.093.078h0c-.072.059-.147.126-.234.2h0c-.213.186-.466.425-.749.715l-.019.019-.005.005A17.332,17.332,0,0,0,9.943,14.054a13.049,13.049,0,0,0,.008,1.44v.011a13.715,13.715,0,0,0,1.8,5.987h0a15.768,15.768,0,0,0,1.166,1.769h0a16.109,16.109,0,0,0,3.165,3.18,10.518,10.518,0,0,1,.5,3.5l.811.271a15.1,15.1,0,0,1,.067-3.175A1.961,1.961,0,0,1,17.9,26.2a10.55,10.55,0,0,0,1-.812c.023-.024.035-.045.055-.068a14.38,14.38,0,0,0,4.265-13.342Z"/><path class="c" d="M 16.55727577209473 0 C 16.55475616455078 0.02392005920410156 16.55223655700684 0.03901863098144531 16.55097579956055 0.06167984008789063 L 16.55097579956055 0.0780487060546875 L 16.54971694946289 0.0780487060546875 C 16.54720687866211 0.09692955017089844 16.54594612121582 0.1095199584960938 16.54468536376953 0.1271400451660156 L 16.54468536376953 0.1460189819335938 L 16.54216575622559 0.1460189819335938 C 16.54216575622559 0.1586093902587891 16.5396556854248 0.1686801910400391 16.5396556854248 0.1787490844726563 L 16.5396556854248 0.2114791870117188 L 16.53587532043457 0.2114791870117188 C 16.53461647033691 0.2215499877929688 16.53461647033691 0.2341403961181641 16.53209686279297 0.2429485321044922 L 16.53209686279297 0.2693901062011719 L 16.52957534790039 0.2693901062011719 C 16.52957534790039 0.2782001495361328 16.52957534790039 0.28826904296875 16.52706527709961 0.2958297729492188 L 16.52706527709961 0.3209991455078125 L 16.52454566955566 0.3209991455078125 C 16.52454566955566 0.3335895538330078 16.52328681945801 0.3486995697021484 16.52202606201172 0.3612785339355469 L 16.52202606201172 0.363800048828125 C 16.51824569702148 0.3851985931396484 16.51446533203125 0.4065990447998047 16.51069641113281 0.4267387390136719 L 16.51069641113281 0.4368190765380859 L 16.50817680358887 0.4368190765380859 C 16.50692558288574 0.4418487548828125 16.5044059753418 0.4468898773193359 16.5044059753418 0.4519195556640625 L 16.5044059753418 0.4733200073242188 L 16.50062561035156 0.4733200073242188 L 16.50062561035156 0.5010089874267578 L 16.49433517456055 0.5010089874267578 L 16.49433517456055 0.5236701965332031 L 16.48803520202637 0.5236701965332031 L 16.48803520202637 0.55010986328125 L 16.48300552368164 0.55010986328125 L 16.48300552368164 0.5740299224853516 L 16.47796630859375 0.5740299224853516 L 16.47796630859375 0.5954303741455078 L 16.47041511535645 0.5954303741455078 L 16.47041511535645 0.6130485534667969 L 16.46537590026855 0.6130485534667969 L 16.46537590026855 0.6357097625732422 L 16.46034622192383 0.6357097625732422 L 16.46034622192383 0.6533298492431641 L 16.45404624938965 0.6533298492431641 L 16.45404624938965 0.6696987152099609 L 16.45027542114258 0.6696987152099609 L 16.45027542114258 0.6885795593261719 L 16.44523620605469 0.6885795593261719 C 16.4439868927002 0.6898403167724609 16.4439868927002 0.6923599243164063 16.4439868927002 0.6936187744140625 L 16.4439868927002 0.7062091827392578 L 16.44020652770996 0.7062091827392578 C 16.43894577026367 0.7087192535400391 16.43894577026367 0.7112388610839844 16.43894577026367 0.7137603759765625 L 16.43894577026367 0.7213096618652344 L 16.43642616271973 0.7213096618652344 C 16.43516540527344 0.7250900268554688 16.43390655517578 0.7313785552978516 16.43390655517578 0.7339000701904297 C 16.43013572692871 0.7427101135253906 16.42509651184082 0.7515201568603516 16.42132568359375 0.7603302001953125 L 16.42132568359375 0.7628498077392578 C 16.4188060760498 0.7653694152832031 16.41628646850586 0.7691497802734375 16.41502571105957 0.7716598510742188 L 16.41502571105957 0.7817287445068359 L 16.40998649597168 0.7817287445068359 L 16.40998649597168 0.79180908203125 L 16.40369606018066 0.79180908203125 L 16.40369606018066 0.8018798828125 L 16.39992523193359 0.8018798828125 L 16.39992523193359 0.8144588470458984 L 16.39236640930176 0.8144588470458984 L 16.39236640930176 0.8320903778076172 L 16.38732528686523 0.8320903778076172 L 16.38732528686523 0.8371200561523438 L 16.38229560852051 0.8371200561523438 L 16.38229560852051 0.8471889495849609 L 16.37726593017578 0.8471889495849609 L 16.37726593017578 0.8610401153564453 L 16.37222671508789 0.8610401153564453 L 16.37222671508789 0.8711090087890625 L 16.36466598510742 0.8711090087890625 L 16.36466598510742 0.8849601745605469 L 16.3596363067627 0.8849601745605469 L 16.3596363067627 0.8950290679931641 L 16.35334587097168 0.8950290679931641 L 16.35334587097168 0.9050998687744141 L 16.34956550598145 0.9050998687744141 L 16.34956550598145 0.9176902770996094 L 16.34327697753906 0.9176902770996094 L 16.34327697753906 0.9277591705322266 L 16.33823585510254 0.9277591705322266 L 16.33823585510254 0.9353103637695313 L 16.33319664001465 0.9353103637695313 L 16.33319664001465 0.9453792572021484 L 16.32564544677734 0.9453792572021484 L 16.32564544677734 0.9567089080810547 L 16.32061576843262 0.9567089080810547 L 16.32061576843262 0.9642696380615234 L 16.31431579589844 0.9642696380615234 L 16.31431579589844 0.9743385314941406 L 16.30927658081055 0.9743385314941406 L 16.30927658081055 0.9881801605224609 L 16.30298614501953 0.9881801605224609 L 16.30298614501953 0.9932193756103516 L 16.29921531677246 0.9932193756103516 L 16.29921531677246 1.003290176391602 L 16.29165649414063 1.003290176391602 L 16.29165649414063 1.008329391479492 L 16.2866153717041 1.008329391479492 L 16.2866153717041 1.020910263061523 L 16.28158569335938 1.020910263061523 L 16.28158569335938 1.025949478149414 L 16.27655601501465 1.025949478149414 L 16.27655601501465 1.036020278930664 L 16.27025604248047 1.036020278930664 L 16.27025604248047 1.043569564819336 L 16.2664852142334 1.043569564819336 L 16.26396560668945 1.048608779907227 L 16.26396560668945 1.053640365600586 L 16.26144599914551 1.053640365600586 C 16.26018524169922 1.056159973144531 16.25892639160156 1.056159973144531 16.25892639160156 1.058679580688477 L 16.25892639160156 1.059940338134766 L 16.25766563415527 1.059940338134766 C 16.25640678405762 1.063709259033203 16.25515556335449 1.066228866577148 16.25263595581055 1.068750381469727 L 16.25263595581055 1.072519302368164 L 16.25137519836426 1.072519302368164 C 16.24508666992188 1.080080032348633 16.24130630493164 1.087629318237305 16.23626518249512 1.095178604125977 L 16.23626518249512 1.096439361572266 C 16.23375701904297 1.098958969116211 16.22745513916016 1.104000091552734 16.22493553161621 1.109029769897461 L 16.22493553161621 1.111549377441406 L 16.22368621826172 1.111549377441406 C 16.22242546081543 1.112810134887695 16.21990585327148 1.114068984985352 16.21990585327148 1.115329742431641 L 16.21990585327148 1.119098663330078 L 16.2173957824707 1.119098663330078 L 16.21361541748047 1.122879028320313 L 16.21361541748047 1.124139785766602 L 16.21235656738281 1.124139785766602 C 16.21235656738281 1.125398635864258 16.20983695983887 1.126659393310547 16.20857620239258 1.129169464111328 L 16.20857620239258 1.134208679199219 L 16.20480537414551 1.134208679199219 L 16.20228576660156 1.136730194091797 L 16.20228576660156 1.139240264892578 L 16.19976615905762 1.139240264892578 C 16.19976615905762 1.141759872436523 16.19724655151367 1.141759872436523 16.19724655151367 1.14301872253418 L 16.19724655151367 1.146799087524414 L 16.19221687316895 1.146799087524414 C 16.19221687316895 1.148059844970703 16.19095611572266 1.149309158325195 16.18969535827637 1.150569915771484 L 16.18969535827637 1.158119201660156 L 16.18591690063477 1.158119201660156 L 16.18591690063477 1.16316032409668 L 16.18088531494141 1.16316032409668 L 16.18088531494141 1.170709609985352 L 16.17584609985352 1.170709609985352 L 16.17584609985352 1.180778503417969 L 16.1695556640625 1.180778503417969 L 16.1695556640625 1.170709609985352 L 16.16326522827148 1.170709609985352 L 16.16326522827148 1.175748825073242 L 16.15822601318359 1.175748825073242 L 16.15822601318359 1.183300018310547 L 16.15192604064941 1.183300018310547 L 16.15192604064941 1.193368911743164 L 16.1456356048584 1.193368911743164 L 16.1456356048584 1.198410034179688 L 16.14060592651367 1.198410034179688 L 16.14060592651367 1.205959320068359 L 16.13556671142578 1.205959320068359 L 16.13556671142578 1.21099853515625 L 16.13052558898926 1.21099853515625 L 16.13052558898926 1.2210693359375 L 16.12297630310059 1.2210693359375 L 16.12297630310059 1.226099014282227 L 16.11793518066406 1.226099014282227 L 16.11793518066406 1.233659744262695 L 16.11164665222168 1.233659744262695 L 16.11164665222168 1.238689422607422 L 16.10660552978516 1.238689422607422 L 16.10660552978516 1.244989395141602 L 16.10031700134277 1.244989395141602 L 16.10031700134277 1.257570266723633 L 16.0977954864502 1.257570266723633 L 16.0977954864502 1.262609481811523 L 16.09024620056152 1.262609481811523 L 16.09024620056152 1.268899917602539 L 16.08520698547363 1.268899917602539 L 16.08520698547363 1.271419525146484 L 16.08017539978027 1.271419525146484 L 16.08017539978027 1.276458740234375 L 16.07387542724609 1.276458740234375 L 16.07387542724609 1.28904914855957 L 16.06884574890137 1.28904914855957 L 16.06884574890137 1.294078826904297 L 16.06254577636719 1.294078826904297 L 16.06254577636719 1.29911994934082 L 16.05751609802246 1.29911994934082 L 16.05751609802246 1.306669235229492 L 16.05121612548828 1.306669235229492 L 16.05121612548828 1.311698913574219 L 16.04492568969727 1.311698913574219 L 16.04492568969727 1.316740036010742 L 16.03988647460938 1.316740036010742 L 16.03988647460938 1.321769714355469 L 16.03485679626465 1.321769714355469 L 16.03485679626465 1.334360122680664 L 16.02981567382813 1.334360122680664 L 16.02981567382813 1.340660095214844 L 16.02226638793945 1.340660095214844 L 16.02226638793945 1.34568977355957 L 16.01722526550293 1.34568977355957 L 16.01722526550293 1.350728988647461 L 16.01093673706055 1.350728988647461 L 16.01093673706055 1.358280181884766 L 16.00589561462402 1.358280181884766 L 16.00589561462402 1.363319396972656 L 15.99960517883301 1.363319396972656 L 15.99960517883301 1.372129440307617 L 15.99457550048828 1.372129440307617 L 15.99457550048828 1.377159118652344 L 15.98701667785645 1.377159118652344 L 15.98701667785645 1.384719848632813 L 15.98449516296387 1.384719848632813 L 15.98449516296387 1.389749526977539 L 15.97946548461914 1.389749526977539 L 15.97946548461914 1.39478874206543 L 15.97316551208496 1.39478874206543 L 15.97316551208496 1.399820327758789 L 15.96813583374023 1.399820327758789 L 15.96813583374023 1.407379150390625 L 15.96184539794922 1.407379150390625 L 15.96184539794922 1.412408828735352 L 15.95806694030762 1.412408828735352 C 15.95680618286133 1.413669586181641 15.95680618286133 1.41493034362793 15.95680618286133 1.41493034362793 L 15.95680618286133 1.417449951171875 L 15.95428657531738 1.417449951171875 L 15.94925689697266 1.422479629516602 C 15.94925689697266 1.422479629516602 15.94673538208008 1.424999237060547 15.94421577453613 1.426259994506836 L 15.94421577453613 1.433809280395508 L 15.93917655944824 1.433809280395508 L 15.93917655944824 1.440109252929688 L 15.93414688110352 1.440109252929688 L 15.93414688110352 1.445138931274414 L 15.92910575866699 1.445138931274414 L 15.92910575866699 1.450180053710938 L 15.92533683776855 1.450180053710938 L 15.92155647277832 1.453948974609375 L 15.92155647277832 1.457729339599609 L 15.91903686523438 1.457729339599609 L 15.9165153503418 1.460248947143555 L 15.9165153503418 1.464019775390625 L 15.91400527954102 1.464019775390625 C 15.90770530700684 1.471578598022461 15.90518569946289 1.47661018371582 15.89637565612793 1.484159469604492 C 15.89386558532715 1.486679077148438 15.88630676269531 1.492979049682617 15.88127517700195 1.496749877929688 C 15.86616516113281 1.506818771362305 15.84728622436523 1.523189544677734 15.83217620849609 1.537029266357422 C 15.82210540771484 1.543329238891602 15.81203651428223 1.552139282226563 15.80448532104492 1.558439254760742 L 15.80448532104492 1.559688568115234 L 15.80322647094727 1.559688568115234 C 15.7830753326416 1.576059341430664 15.76420593261719 1.591169357299805 15.74154663085938 1.608789443969727 L 15.74154663085938 1.610050201416016 C 15.71132659912109 1.635219573974609 15.68237686157227 1.659139633178711 15.64838600158691 1.688098907470703 L 15.64838600158691 1.686840057373047 L 15.64587593078613 1.686840057373047 C 15.57411575317383 1.746000289916992 15.49858665466309 1.812719345092773 15.41173553466797 1.886989593505859 L 15.41173553466797 1.888250350952148 L 15.41046524047852 1.888250350952148 C 15.19772529602051 2.074560165405273 14.94470596313477 2.313730239868164 14.66146659851074 2.603269577026367 L 14.64258575439453 2.622148513793945 L 14.63754653930664 2.627180099487305 C 12.92554664611816 4.398359298706055 10.22786521911621 8.089260101318359 9.943367004394531 14.0536003112793 C 9.918195724487305 14.54706954956055 9.923225402832031 15.02667903900146 9.950925827026367 15.49370956420898 L 9.950925827026367 15.50503921508789 C 10.08813667297363 17.85527992248535 10.8258056640625 19.86185836791992 11.74853515625 21.49205017089844 L 11.74853515625 21.49330902099609 C 12.11611557006836 22.14286041259766 12.51264572143555 22.7332592010498 12.91421699523926 23.26197052001953 L 12.91421699523926 23.26321983337402 C 14.30144691467285 25.09482002258301 15.71763610839844 26.17993927001953 16.07891654968262 26.44302940368652 C 16.63406562805176 27.73081970214844 16.58244514465332 29.94132995605469 16.58244514465332 29.94132995605469 L 17.39313697814941 30.21197891235352 C 17.39313697814941 30.21197891235352 17.22822570800781 28.07070922851563 17.4598560333252 27.03719902038574 C 17.53160667419434 26.71368026733398 17.7015552520752 26.43799018859863 17.89918518066406 26.20384979248047 C 18.03262519836426 26.10943984985352 18.42789649963379 25.8249397277832 18.9024772644043 25.39189910888672 C 18.92513656616211 25.36798858642578 18.93772506713867 25.34658050537109 18.95786666870117 25.32392883300781 C 20.87255477905273 23.53889846801758 24.44889640808105 19.14305877685547 23.22279739379883 11.98155975341797 L 23.22279739379883 11.98156929016113 C 21.63288497924805 4.982460021972656 17.88282585144043 2.68256950378418 17.47999572753906 1.802648544311523 C 17.03689575195313 1.182039260864258 16.55727577209473 0 16.55727577209473 0 M 14.79800605773926 -1.921951293945313 L 16.54971694946289 -1.921951293945313 L 16.5504035949707 -0.8292903900146484 L 18.1695556640625 -0.8292903900146484 L 18.1695556640625 -0.7179508209228516 L 18.40521621704102 -0.751220703125 L 18.41003608703613 -0.7531814575195313 C 18.56932640075684 -0.362091064453125 18.90122604370117 0.3513088226318359 19.10770606994629 0.6405086517333984 L 19.21885681152344 0.7961997985839844 L 19.23889541625977 0.8399734497070313 C 19.32833862304688 0.9421043395996094 19.50192642211914 1.121500015258789 19.64625549316406 1.270669937133789 C 21.00121688842773 2.671009063720703 23.82068634033203 5.58489990234375 25.1731071472168 11.53853988647461 L 25.18503570556641 11.59101867675781 L 25.19411468505859 11.64406967163086 C 25.79620742797852 15.16078948974609 25.42720603942871 18.4692497253418 24.09736633300781 21.4775505065918 C 23.01915740966797 23.91662788391113 21.52445030212402 25.64553833007813 20.42395782470703 26.69057083129883 C 20.40292358398438 26.71487808227539 20.37973785400391 26.74063491821289 20.3541259765625 26.76766014099121 L 20.30418586730957 26.82036018371582 L 20.25055694580078 26.86928939819336 C 19.97277450561523 27.12276268005371 19.68062591552734 27.36706924438477 19.39075469970703 27.58876037597656 C 19.30680847167969 28.14735794067383 19.33203887939453 29.34178161621094 19.38722610473633 30.05839920043945 L 19.61866569519043 33.0634880065918 L 16.75979614257813 32.10905075073242 L 15.94910621643066 31.83839988708496 L 14.54851531982422 31.37080955505371 L 14.5829963684082 29.89463996887207 C 14.59527015686035 29.29682731628418 14.53513526916504 28.32161521911621 14.37408256530762 27.65095138549805 C 13.66419219970703 27.07216644287109 12.4761791229248 25.99742889404297 11.31988525390625 24.47073936462402 L 10.91421699523926 23.93512916564941 L 10.91421699523926 23.91330718994141 C 10.58803558349609 23.44757080078125 10.28447723388672 22.9670295715332 10.00791549682617 22.47831916809082 L 9.74853515625 22.01996994018555 L 9.74853515625 22.00144577026367 C 8.686651229858398 19.97861289978027 8.083549499511719 17.83510398864746 7.954326629638672 15.6215991973877 L 7.950925827026367 15.56336975097656 L 7.950925827026367 15.55090999603271 C 7.921125411987305 15.01280975341797 7.919363021850586 14.47679901123047 7.945713043212891 13.95668792724609 C 8.084514617919922 11.05112075805664 8.761684417724609 8.336931228637695 9.958425521850586 5.889419555664063 C 10.81144523620605 4.144899368286133 11.90190696716309 2.579658508300781 13.19951629638672 1.237190246582031 L 13.21200561523438 1.224269866943359 L 13.22473526000977 1.211559295654297 L 13.22977638244629 1.20652961730957 L 13.23984146118164 1.196470260620117 C 13.29766654968262 1.137426376342773 13.35497093200684 1.079635620117188 13.41173553466797 1.02311897277832 L 13.41173553466797 0.9669895172119141 L 13.74154663085938 0.6843547821044922 L 13.74154663085938 0.6317291259765625 L 13.92910575866699 0.4855804443359375 L 13.92910575866699 -0.5548610687255859 L 13.93414688110352 -0.5548610687255859 L 13.93414688110352 -0.5598907470703125 L 13.93917655944824 -0.5598907470703125 L 13.93917655944824 -0.5661907196044922 L 13.96184539794922 -0.5661907196044922 L 13.96184539794922 -0.592620849609375 L 13.96813583374023 -0.592620849609375 L 13.96813583374023 -0.6001796722412109 L 13.97316551208496 -0.6001796722412109 L 13.97316551208496 -0.6052112579345703 L 13.97946548461914 -0.6052112579345703 L 13.97946548461914 -0.6102504730224609 L 13.98449516296387 -0.6102504730224609 L 13.98449516296387 -0.6152801513671875 L 13.98701667785645 -0.6152801513671875 L 13.98701667785645 -0.6228408813476563 L 13.99457550048828 -0.6228408813476563 L 13.99457550048828 -0.6278705596923828 L 13.99960517883301 -0.6278705596923828 L 13.99960517883301 -0.6366806030273438 L 14.00589561462402 -0.6366806030273438 L 14.00589561462402 -0.6417198181152344 L 14.01093673706055 -0.6417198181152344 L 14.01093673706055 -0.6492710113525391 L 14.01722526550293 -0.6492710113525391 L 14.01722526550293 -0.6543102264404297 L 14.02226638793945 -0.6543102264404297 L 14.02226638793945 -0.6593399047851563 L 14.02981567382813 -0.6593399047851563 L 14.02981567382813 -0.6656398773193359 L 14.03485679626465 -0.6656398773193359 L 14.03485679626465 -0.6782302856445313 L 14.03988647460938 -0.6782302856445313 L 14.03988647460938 -0.6832599639892578 L 14.04492568969727 -0.6832599639892578 L 14.04492568969727 -0.6883010864257813 L 14.05121612548828 -0.6883010864257813 L 14.05121612548828 -0.6933307647705078 L 14.05751609802246 -0.6933307647705078 L 14.05751609802246 -0.7008800506591797 L 14.06254577636719 -0.7008800506591797 L 14.06254577636719 -0.7059211730957031 L 14.06884574890137 -0.7059211730957031 L 14.06884574890137 -0.7109508514404297 L 14.07387542724609 -0.7109508514404297 L 14.07387542724609 -0.723541259765625 L 14.08017539978027 -0.723541259765625 L 14.08017539978027 -0.7285804748535156 L 14.08520698547363 -0.7285804748535156 L 14.09024620056152 -0.7285861968994141 L 14.09024620056152 -0.7373905181884766 L 14.0977954864502 -0.7373905181884766 L 14.0977954864502 -0.7424297332763672 L 14.10031700134277 -0.7424297332763672 L 14.10031700134277 -0.7550106048583984 L 14.10660552978516 -0.7550106048583984 L 14.10660552978516 -0.7613105773925781 L 14.11164665222168 -0.7613105773925781 L 14.11164665222168 -0.7663402557373047 L 14.11793518066406 -0.7663402557373047 L 14.11793518066406 -0.7739009857177734 L 14.12297630310059 -0.7739009857177734 L 14.12297630310059 -0.7789306640625 L 14.13052558898926 -0.7789306640625 L 14.13052558898926 -0.78900146484375 L 14.13556671142578 -0.78900146484375 L 14.13556671142578 -0.7940406799316406 L 14.14060592651367 -0.7940406799316406 L 14.14060592651367 -0.8015899658203125 L 14.1456356048584 -0.8015899658203125 L 14.1456356048584 -0.8066310882568359 L 14.15192604064941 -0.8066310882568359 L 14.15192604064941 -0.8166999816894531 L 14.15822601318359 -0.8166999816894531 L 14.15822601318359 -0.8242511749267578 L 14.16326522827148 -0.8242511749267578 L 14.16326522827148 -0.8292903900146484 L 14.17584609985352 -0.8292903900146484 L 14.18088531494141 -0.8292903900146484 L 14.18088531494141 -0.8368396759033203 L 14.18591690063477 -0.8368396759033203 L 14.18591690063477 -0.8418807983398438 L 14.19221687316895 -0.8418807983398438 L 14.19221687316895 -0.8532009124755859 L 14.19976615905762 -0.8532009124755859 L 14.19976615905762 -0.8607597351074219 L 14.21235656738281 -0.8607597351074219 L 14.21235656738281 -0.8758602142333984 L 14.27025604248047 -0.8758602142333984 L 14.27025604248047 -0.9639797210693359 L 14.27655601501465 -0.9639797210693359 L 14.27655601501465 -0.9740505218505859 L 14.28158569335938 -0.9740505218505859 L 14.28158569335938 -0.9790897369384766 L 14.2866153717041 -0.9790897369384766 L 14.2866153717041 -0.9916706085205078 L 14.29165649414063 -0.9916706085205078 L 14.29165649414063 -0.9967098236083984 L 14.29921531677246 -0.9967098236083984 L 14.29921531677246 -1.006780624389648 L 14.30298614501953 -1.006780624389648 L 14.30298614501953 -1.011819839477539 L 14.30927658081055 -1.011819839477539 L 14.30927658081055 -1.025661468505859 L 14.31431579589844 -1.025661468505859 L 14.31431579589844 -1.035730361938477 L 14.32061576843262 -1.035730361938477 L 14.32061576843262 -1.043291091918945 L 14.32564544677734 -1.043291091918945 L 14.32564544677734 -1.054620742797852 L 14.33319664001465 -1.054620742797852 L 14.33319664001465 -1.064689636230469 L 14.33823585510254 -1.064689636230469 L 14.33823585510254 -1.072240829467773 L 14.34327697753906 -1.072240829467773 L 14.34327697753906 -1.082309722900391 L 14.34956550598145 -1.082309722900391 L 14.34956550598145 -1.094900131225586 L 14.35334587097168 -1.094900131225586 L 14.35334587097168 -1.104970932006836 L 14.3596363067627 -1.104970932006836 L 14.3596363067627 -1.115039825439453 L 14.36466598510742 -1.115039825439453 L 14.36466598510742 -1.128890991210938 L 14.37222671508789 -1.128890991210938 L 14.37222671508789 -1.138959884643555 L 14.37726593017578 -1.138959884643555 L 14.37726593017578 -1.152811050415039 L 14.38229560852051 -1.152811050415039 L 14.38229560852051 -1.162879943847656 L 14.38732528686523 -1.162879943847656 L 14.38732528686523 -1.167909622192383 L 14.39236640930176 -1.167909622192383 L 14.39236640930176 -1.185541152954102 L 14.39992523193359 -1.185541152954102 L 14.39992523193359 -1.1981201171875 L 14.40369606018066 -1.1981201171875 L 14.40369606018066 -1.20819091796875 L 14.40998649597168 -1.20819091796875 L 14.40998649597168 -1.218271255493164 L 14.45027542114258 -1.218271255493164 L 14.45027542114258 -1.330301284790039 L 14.45404624938965 -1.330301284790039 L 14.45404624938965 -1.346670150756836 L 14.46034622192383 -1.346670150756836 L 14.46034622192383 -1.364290237426758 L 14.46537590026855 -1.364290237426758 L 14.46537590026855 -1.386951446533203 L 14.47041511535645 -1.386951446533203 L 14.47041511535645 -1.404569625854492 L 14.47796630859375 -1.404569625854492 L 14.47796630859375 -1.425970077514648 L 14.48300552368164 -1.425970077514648 L 14.48300552368164 -1.44989013671875 L 14.48803520202637 -1.44989013671875 L 14.48803520202637 -1.476329803466797 L 14.49433517456055 -1.476329803466797 L 14.49433517456055 -1.498991012573242 L 14.50062561035156 -1.498991012573242 L 14.50062561035156 -1.526679992675781 L 14.52454566955566 -1.526679992675781 L 14.52454566955566 -1.679000854492188 L 14.52987861633301 -1.679000854492188 L 14.52988624572754 -1.729990005493164 L 14.54216575622559 -1.72999382019043 L 14.54216575622559 -1.853981018066406 L 14.78896903991699 -1.853981018066406 L 14.79800605773926 -1.921951293945313 Z"/></g></svg>