<svg xmlns="http://www.w3.org/2000/svg" width="30.752" height="34.685" viewBox="0 0 30.752 34.685"><defs><style>.a{fill:rgba(48,28,43,0.25);}</style></defs><path class="a" d="M15.418,34.97a2.7,2.7,0,0,1-1.335-.358L9.836,32.1c-.633-.358-.323-.482-.117-.551a8.365,8.365,0,0,0,1.92-.874.311.311,0,0,1,.317.028l3.262,1.934a.4.4,0,0,0,.392,0L28.323,25.3a.407.407,0,0,0,.193-.344V10.282a.41.41,0,0,0-.2-.351L15.611,2.6a.4.4,0,0,0-.392,0L2.52,9.938a.4.4,0,0,0-.2.351V24.956a.38.38,0,0,0,.2.337L6,27.3c1.893.943,3.049-.165,3.049-1.287V11.534a.364.364,0,0,1,.372-.365h1.611a.369.369,0,0,1,.372.365V26.023c0,2.519-1.377,3.964-3.765,3.964a5.405,5.405,0,0,1-2.925-.8l-3.331-1.92A2.676,2.676,0,0,1,.049,24.949V10.282A2.685,2.685,0,0,1,1.384,7.962L14.083.625a2.787,2.787,0,0,1,2.67,0L29.466,7.969A2.676,2.676,0,0,1,30.8,10.289V24.956a2.693,2.693,0,0,1-1.335,2.319L16.753,34.612A2.677,2.677,0,0,1,15.418,34.97ZM25.68,20.509c0-2.746-1.858-3.476-5.761-3.992-3.951-.523-4.35-.792-4.35-1.714,0-.764.337-1.783,3.262-1.783,2.609,0,3.572.564,3.971,2.326a.368.368,0,0,0,.358.289h1.652a.359.359,0,0,0,.268-.117.383.383,0,0,0,.1-.282c-.255-3.035-2.271-4.446-6.346-4.446-3.627,0-5.788,1.528-5.788,4.1,0,2.781,2.154,3.551,5.63,3.9,4.164.406,4.488,1.019,4.488,1.838,0,1.418-1.143,2.024-3.82,2.024-3.366,0-4.1-.847-4.35-2.519a.364.364,0,0,0-.365-.31H12.982a.363.363,0,0,0-.365.365c0,2.141,1.163,4.694,6.731,4.694C23.368,24.866,25.68,23.276,25.68,20.509Z" transform="translate(-0.049 -0.285)"/></svg>