<svg xmlns="http://www.w3.org/2000/svg" width="35.298" height="30.887" viewBox="0 0 35.298 30.887"><defs><style>.a{fill:rgba(48,28,43,0.25);}</style></defs><path class="a" d="M28.831,12.26q-.558-.186-1.117-.352c.062-.255.117-.51.172-.765.848-4.109.29-7.411-1.593-8.5-1.813-1.041-4.771.041-7.763,2.647-.3.255-.586.524-.862.793-.186-.179-.379-.358-.572-.531C13.961,2.767,10.817,1.6,8.935,2.691,7.129,3.739,6.591,6.848,7.349,10.737c.076.386.159.765.255,1.151-.441.124-.876.262-1.282.407C2.64,13.57,0,15.583,0,17.665c0,2.151,2.813,4.309,6.639,5.619.31.1.62.207.938.3-.1.414-.193.82-.276,1.241-.724,3.826-.159,6.86,1.648,7.9,1.861,1.075,4.991-.028,8.039-2.7.241-.214.483-.434.724-.669.3.3.62.579.938.855,2.951,2.537,5.867,3.564,7.666,2.523C28.176,31.66,28.783,28.4,28,24.428q-.093-.455-.207-.931c.221-.062.434-.131.648-.2,3.978-1.317,6.86-3.447,6.86-5.633,0-2.089-2.716-4.116-6.467-5.405ZM19.5,6.407C22.068,4.173,24.46,3.3,25.55,3.925c1.165.669,1.613,3.371.882,6.922-.048.234-.1.462-.159.689a35.292,35.292,0,0,0-4.64-.731A34.833,34.833,0,0,0,18.7,7.145C18.966,6.89,19.228,6.648,19.5,6.407ZM11.527,21.243c.352.6.71,1.2,1.089,1.786a31.219,31.219,0,0,1-3.2-.517,32.206,32.206,0,0,1,1.124-3.068c.317.607.641,1.206.986,1.8ZM9.438,12.95c.993-.221,2.048-.4,3.144-.538-.365.572-.724,1.158-1.062,1.751s-.669,1.186-.979,1.792C10.107,14.928,9.741,13.922,9.438,12.95Zm1.889,4.75c.455-.951.951-1.882,1.475-2.8s1.089-1.806,1.682-2.682c1.034-.076,2.089-.117,3.164-.117s2.137.041,3.164.117q.879,1.3,1.675,2.668t1.5,2.785Q23.292,19.1,22.5,20.485c-.524.917-1.082,1.806-1.668,2.689-1.027.076-2.1.11-3.178.11s-2.13-.034-3.144-.1q-.9-1.313-1.7-2.689c-.531-.917-1.02-1.848-1.482-2.8Zm12.451,3.53c.352-.607.683-1.22,1.007-1.841a32,32,0,0,1,1.165,3.054,30.282,30.282,0,0,1-3.24.552C23.082,22.415,23.433,21.823,23.778,21.23Zm.993-5.274c-.324-.607-.655-1.213-1-1.806s-.689-1.165-1.055-1.737a31.725,31.725,0,0,1,3.164.552,30.511,30.511,0,0,1-1.11,2.992ZM17.663,8.2A30.272,30.272,0,0,1,19.7,10.668c-1.365-.062-2.737-.062-4.1,0C16.277,9.778,16.973,8.951,17.663,8.2Zm-8-4.226c1.158-.676,3.73.29,6.439,2.689.172.152.345.317.524.483a35.026,35.026,0,0,0-2.958,3.661,36.341,36.341,0,0,0-4.633.717c-.09-.352-.165-.71-.241-1.069-.648-3.337-.221-5.853.869-6.48ZM7.977,22.147c-.29-.083-.572-.172-.855-.269a14.061,14.061,0,0,1-4.343-2.151,3.094,3.094,0,0,1-1.3-2.061c0-1.262,2.179-2.875,5.322-3.971.393-.138.793-.262,1.193-.379A36.658,36.658,0,0,0,9.686,17.7a37.685,37.685,0,0,0-1.71,4.447ZM16.015,28.9a12.619,12.619,0,0,1-3.888,2.434,3.051,3.051,0,0,1-2.434.09c-1.1-.634-1.551-3.068-.931-6.343.076-.386.159-.772.255-1.151a34.488,34.488,0,0,0,4.681.676,36.378,36.378,0,0,0,2.978,3.681C16.456,28.5,16.236,28.71,16.015,28.9ZM17.7,27.228c-.7-.758-1.406-1.6-2.089-2.5.662.028,1.344.041,2.034.041.71,0,1.406-.014,2.1-.048A29.729,29.729,0,0,1,17.7,27.228ZM26.715,29.3a3.064,3.064,0,0,1-1.138,2.158c-1.1.634-3.433-.193-5.957-2.358-.29-.248-.579-.517-.876-.793a34.1,34.1,0,0,0,2.909-3.7,33.983,33.983,0,0,0,4.7-.724c.069.283.131.565.186.841a12.568,12.568,0,0,1,.172,4.571Zm1.255-7.411c-.193.062-.386.124-.586.179a35.022,35.022,0,0,0-1.758-4.4,34.847,34.847,0,0,0,1.689-4.336c.359.1.7.214,1.034.324,3.213,1.1,5.467,2.744,5.467,4C33.816,19,31.41,20.747,27.97,21.885ZM17.649,20.85a3.158,3.158,0,1,0-3.158-3.158A3.157,3.157,0,0,0,17.649,20.85Z" transform="translate(0 -2.251)"/></svg>