<svg xmlns="http://www.w3.org/2000/svg" width="36.292" height="34.418" viewBox="0 0 36.292 34.418"><defs><style>.a{fill:rgba(48,28,43,0.25);}</style></defs><path class="a" d="M25.154,24.951A2.517,2.517,0,0,0,27.421,22.3a2.611,2.611,0,0,0-2.583-2.492h-.092a2.586,2.586,0,0,0-2.492,2.675A2.761,2.761,0,0,0,23,24.225a16.681,16.681,0,0,1-7.567,7.251,12.407,12.407,0,0,1-7.477,1.4,6.518,6.518,0,0,1-4.712-2.719A6.758,6.758,0,0,1,2.858,23a10.685,10.685,0,0,1,3.174-3.694A15.062,15.062,0,0,1,5.4,16.977c-6.708,4.8-6.026,11.374-3.988,14.479,1.518,2.265,4.623,3.714,8.021,3.714a11.769,11.769,0,0,0,2.787-.293A17.728,17.728,0,0,0,25.133,25l.021-.047Zm8.088-5.665A18.7,18.7,0,0,0,18.672,12.9H17.9a2.438,2.438,0,0,0-2.264-1.36h-.068a2.536,2.536,0,0,0-2.491,2.651,2.611,2.611,0,0,0,2.583,2.492h.112a2.557,2.557,0,0,0,2.265-1.586h.839a17.547,17.547,0,0,1,9.812,3.012A12.421,12.421,0,0,1,33.583,24a6.257,6.257,0,0,1-.068,5.44,6.735,6.735,0,0,1-6.344,3.806,11.828,11.828,0,0,1-4.487-.974c-.543.451-1.45,1.2-2.108,1.653a14.548,14.548,0,0,0,5.958,1.426,10.116,10.116,0,0,0,8.95-4.894c1.358-2.719,1.246-7.3-2.222-11.215ZM9.815,25.765A2.608,2.608,0,0,0,12.4,28.257h.091a2.583,2.583,0,0,0-.068-5.164h-.092a.975.975,0,0,0-.34.044A16.924,16.924,0,0,1,9.611,12.9a12.3,12.3,0,0,1,2.718-7.161,8.053,8.053,0,0,1,5.665-2.583c4.894-.092,6.934,6.005,7.091,8.429l2.265.679C26.828,4.83,22.208.931,17.789.931c-4.147,0-7.974,3.014-9.517,7.433-2.107,5.892-.724,11.555,1.859,16.088a2,2,0,0,0-.316,1.313Z" transform="translate(0 -0.931)"/></svg>