<svg xmlns="http://www.w3.org/2000/svg" width="45.617" height="34.216" viewBox="0 0 45.617 34.216"><defs><style>.a{fill:rgba(48,28,43,0.25);}</style></defs><path class="a" d="M21.514,26.993C21.493,27.036,21.471,27.07,21.514,26.993Zm17.757-6.2a9.349,9.349,0,0,0-4.134.962,8.779,8.779,0,0,1-.927-2.145,5.727,5.727,0,0,1-.078-1.8,15.186,15.186,0,0,1,.542-1.939c-.007-.078-.1-.47-1.019-.478s-1.711.178-1.8.421a8.754,8.754,0,0,0-.378,1.361,33.027,33.027,0,0,1-2.786,5.367,5.534,5.534,0,0,1-.634-1.568,5.727,5.727,0,0,1-.078-1.8,15.187,15.187,0,0,1,.542-1.939c-.007-.078-.1-.47-1.019-.478s-1.711.178-1.8.421-.192.813-.378,1.361-2.416,5.51-3,6.8c-.3.656-.556,1.183-.741,1.54-.029.057-.05.093-.064.121.021-.036.036-.071.036-.057-.157.306-.249.478-.249.478v.007c-.121.228-.257.435-.321.435A2.957,2.957,0,0,1,21,26.437c.335-1.725,1.126-4.4,1.119-4.5-.007-.05.15-.513-.52-.763a.839.839,0,0,0-.941.157c-.057,0-.1.143-.1.143s.72-3.022-1.382-3.022c-1.311,0-3.136,1.44-4.033,2.744-.563.306-1.782.969-3.065,1.675l-1.475.813c-.036-.036-.064-.071-.1-.107-2.551-2.723-7.261-4.647-7.061-8.3.071-1.333.535-4.833,9.057-9.081,6.985-3.478,12.57-2.523,13.531-.4,1.383,3.029-2.986,8.667-10.24,9.48-2.765.306-4.218-.763-4.582-1.162-.378-.421-.435-.442-.577-.364-.235.128-.086.5,0,.72a4.3,4.3,0,0,0,2.622,2.06,13.888,13.888,0,0,0,8.494-.841c4.4-1.7,7.831-6.422,6.826-10.378C27.55,1.29,20.884-.028,14.581,2.21A31.705,31.705,0,0,0,3.843,8.368c-3.47,3.25-4.026,6.08-3.8,7.263.812,4.2,6.6,6.935,8.914,8.959-.114.064-.221.121-.321.178-1.161.577-5.572,2.887-6.677,5.324-1.247,2.766.207,4.747,1.161,5.018A7.116,7.116,0,0,0,10.79,32a7.717,7.717,0,0,0,.684-7.092c-.007-.021-.021-.036-.029-.057.3-.178.606-.356.912-.535.591-.349,1.168-.67,1.674-.948a11.071,11.071,0,0,0-.6,3.036,6.31,6.31,0,0,0,1.361,4.4,1.5,1.5,0,0,0,1.1.356c.984,0,1.426-.813,1.917-1.782.606-1.183,1.14-2.559,1.14-2.559s-.67,3.721,1.162,3.721c.669,0,1.339-.862,1.639-1.3v.007s.014-.029.05-.086c.071-.107.107-.171.107-.171v-.021c.271-.463.862-1.525,1.753-3.279,1.155-2.267,2.259-5.1,2.259-5.1a14.344,14.344,0,0,0,.442,1.839,17.217,17.217,0,0,0,.955,2.138c-.271.371-.435.584-.435.584a.022.022,0,0,0,.007.014c-.214.285-.456.592-.706.891a25.158,25.158,0,0,0-2.138,2.68.728.728,0,0,0,.2.976,1.733,1.733,0,0,0,1.118.178,4.943,4.943,0,0,0,1.675-.385,5.859,5.859,0,0,0,1.439-.756,3.218,3.218,0,0,0,1.383-2.837,5.9,5.9,0,0,0-.52-2.01c.078-.114.164-.235.242-.356a37.891,37.891,0,0,0,2.5-4.321,14.344,14.344,0,0,0,.442,1.839,12.572,12.572,0,0,0,.812,1.832,7.835,7.835,0,0,0-2.43,3.143c-.527,1.518-.114,2.2.663,2.359a2.391,2.391,0,0,0,1.219-.249,5.664,5.664,0,0,0,1.539-.791,3.444,3.444,0,0,0,1.7-2.823,5.3,5.3,0,0,0-.385-1.668,8.7,8.7,0,0,1,4.426-.513c3.969.463,4.746,2.944,4.6,3.977A2.635,2.635,0,0,1,43.4,28.118c-.278.171-.364.235-.342.364.036.185.164.178.4.135a3.1,3.1,0,0,0,2.159-2.758c.114-2.423-2.216-5.089-6.344-5.068ZM8.681,31.105c-1.311,1.433-3.15,1.974-3.94,1.518-.848-.493-.513-2.6,1.1-4.128a21.119,21.119,0,0,1,3.093-2.309c.192-.114.47-.285.813-.492.057-.036.086-.05.086-.05.064-.043.135-.078.207-.121A5.689,5.689,0,0,1,8.681,31.1Zm9.577-6.515c-.456,1.119-1.418,3.97-2,3.82-.5-.128-.805-2.3-.1-4.441a9.831,9.831,0,0,1,1.561-2.858c.719-.805,1.51-1.062,1.7-.741C19.662,20.792,18.543,23.892,18.258,24.591Zm7.912,3.778c-.192.1-.371.164-.456.114-.064-.036.078-.171.078-.171s.991-1.062,1.383-1.547c.228-.285.492-.62.776-.991,0,.036.007.071.007.114a3.305,3.305,0,0,1-1.79,2.48Zm6.1-1.39c-.143-.1-.121-.435.356-1.475a5.54,5.54,0,0,1,1.354-1.746,2.579,2.579,0,0,1,.135.77,2.513,2.513,0,0,1-1.845,2.452Z" transform="translate(0 -1.125)"/></svg>