<svg xmlns="http://www.w3.org/2000/svg" viewBox="0 0 53.52 53.52"><defs><style>.cls-1{fill:#fff;}</style></defs><title>logo-gped</title><g id="Layer_2" data-name="Layer 2"><g id="Layer_1-2" data-name="Layer 1"><circle cx="26.76" cy="26.76" r="26.76"/><g id="circle-braces"><circle class="cls-1" cx="26.76" cy="26.76" r="21.86"/><g id="braces-a"><path d="M30.94,32.08H29V30.21H29a4,4,0,0,1-3.69,2.15,3.92,3.92,0,0,1-2.81-.95,3.3,3.3,0,0,1-1-2.52q0-3.36,4-3.91l3.6-.5c0-2-.83-3.06-2.48-3.06a5.87,5.87,0,0,0-3.91,1.48v-2a7.44,7.44,0,0,1,4.08-1.13c2.82,0,4.23,1.5,4.23,4.48ZM29,26l-2.9.4a4.82,4.82,0,0,0-2,.66,1.9,1.9,0,0,0-.68,1.68,1.85,1.85,0,0,0,.62,1.44,2.44,2.44,0,0,0,1.67.56,3.07,3.07,0,0,0,2.36-1A3.57,3.57,0,0,0,29,27.21Z"/><path d="M21.23,37.56q-3.91,0-3.91-4V29.79c0-1.72-.66-2.62-2-2.71V25.6c1.33-.08,2-1,2-2.75V19.13q0-4,3.91-4v1.63c-1.35,0-2,.87-2,2.52V23c0,1.78-.64,2.88-1.92,3.29v.05c1.28.38,1.92,1.47,1.92,3.26v3.69a3.49,3.49,0,0,0,.45,2,1.91,1.91,0,0,0,1.57.63Z"/><path d="M31.92,36a1.91,1.91,0,0,0,1.57-.63,3.4,3.4,0,0,0,.46-2V29.62c0-1.79.63-2.88,1.91-3.26v-.05C34.58,25.9,34,24.8,34,23V19.28c0-1.65-.68-2.49-2-2.52V15.13q3.91,0,3.91,4v3.72c0,1.75.67,2.67,2,2.75v1.48c-1.32.09-2,1-2,2.71v3.82q0,3.9-3.91,4Z"/></g></g></g></g></svg>