<svg xmlns="http://www.w3.org/2000/svg" width="100.233" height="186.724" viewBox="0 0 100.233 186.724"><defs><style>.a{fill:rgba(48,28,43,0.1);}</style></defs><path class="a" d="M31.7-18a38.413,38.413,0,0,1-1.954-7.376,46.553,46.553,0,0,1-.693-7.754,45.981,45.981,0,0,1,1.135-10.591,36.945,36.945,0,0,1,3.4-9.015A42.59,42.59,0,0,1,39.264-60.8a72.946,72.946,0,0,1,7.943-7.628q4.791-4.035,8.384-7.5a53.193,53.193,0,0,0,6.115-6.934,26.882,26.882,0,0,0,3.782-7.187,25.606,25.606,0,0,0,1.261-8.258,18.722,18.722,0,0,0-1.387-7.25,16.172,16.172,0,0,0-3.972-5.737,18.817,18.817,0,0,0-6.3-3.782,23.481,23.481,0,0,0-8.258-1.387,56.494,56.494,0,0,0-20.425,4.1A66.867,66.867,0,0,0,6.357-99.953V-137.9a78.6,78.6,0,0,1,21.181-8.7,96.36,96.36,0,0,1,23.7-2.9,87.677,87.677,0,0,1,21.812,2.585,50.177,50.177,0,0,1,17.588,8.132A38.234,38.234,0,0,1,102.367-124.6q4.224,8.636,4.224,20.74a51.149,51.149,0,0,1-1.765,13.932,46.777,46.777,0,0,1-5.169,11.788,59.466,59.466,0,0,1-8.447,10.654,156.423,156.423,0,0,1-11.6,10.528Q75.2-53.3,71.856-50.151a43.243,43.243,0,0,0-5.548,6.241,24.169,24.169,0,0,0-3.341,6.556,25.292,25.292,0,0,0-1.135,7.88,24.492,24.492,0,0,0,.82,6.178A18.094,18.094,0,0,0,64.858-18ZM50.107,37.222q-10.086,0-16.769-6.052a19.8,19.8,0,0,1-6.682-14.877A18.914,18.914,0,0,1,33.338,1.542q6.682-5.926,16.769-5.926,9.96,0,16.516,5.926A18.827,18.827,0,0,1,73.18,16.293a19.52,19.52,0,0,1-6.43,15Q60.193,37.222,50.107,37.222Z" transform="translate(-6.357 149.502)"/></svg>